<svg width="55" height="52" viewBox="0 0 55 52" fill="none" xmlns="http://www.w3.org/2000/svg">
<path d="M42.1541 10.5891L29.068 7.0827C24.3213 5.81084 20.8129 7.84961 19.5369 12.6119L15.215 28.7412C13.9181 33.5815 15.9538 37.0389 20.7004 38.3107L33.7865 41.8172C38.6097 43.1095 42.0233 41.1123 43.3203 36.2719L47.6421 20.1427C48.9181 15.3804 46.9772 11.8815 42.1541 10.5891Z" fill="url(#paint0_linear_408_657)"/>
<g opacity="0.5" filter="url(#filter0_f_408_657)">
<path d="M38.7347 15.0061L29.819 12.6172C26.5851 11.7506 24.1948 13.1397 23.3254 16.3842L20.3809 27.3733C19.4972 30.671 20.8842 33.0266 24.1181 33.8931L33.0338 36.2821C36.3199 37.1626 38.6456 35.8018 39.5292 32.5041L42.4738 21.515C43.3431 18.2704 42.0208 15.8866 38.7347 15.0061Z" fill="#39B93A"/>
</g>
<g filter="url(#filter1_b_408_657)">
<mask id="path-3-outside-1_408_657" maskUnits="userSpaceOnUse" x="0.34668" y="12.7227" width="40" height="40" fill="black">
<rect fill="white" x="0.34668" y="12.7227" width="40" height="40"/>
<path d="M28.0172 13.7227H11.8921C5.58718 13.7227 1.34668 18.1491 1.34668 24.7331V39.9282C1.34668 46.4935 5.58718 50.92 11.8921 50.92H28.0172C34.3221 50.92 38.544 46.4935 38.544 39.9282V24.7331C38.544 18.1491 34.3221 13.7227 28.0172 13.7227Z"/>
</mask>
<path d="M28.0172 13.7227H11.8921C5.58718 13.7227 1.34668 18.1491 1.34668 24.7331V39.9282C1.34668 46.4935 5.58718 50.92 11.8921 50.92H28.0172C34.3221 50.92 38.544 46.4935 38.544 39.9282V24.7331C38.544 18.1491 34.3221 13.7227 28.0172 13.7227Z" fill="#72DC60" fill-opacity="0.35"/>
<path d="M28.0172 14.5414C28.4694 14.5414 28.8359 14.1749 28.8359 13.7227C28.8359 13.2705 28.4694 12.9039 28.0172 12.9039V14.5414ZM28.0172 12.9039C27.565 12.9039 27.1984 13.2705 27.1984 13.7227C27.1984 14.1749 27.565 14.5414 28.0172 14.5414V12.9039ZM28.0172 12.9039H11.8921V14.5414H28.0172V12.9039ZM11.8921 12.9039C8.54087 12.9039 5.68259 14.0848 3.66375 16.1925C1.64785 18.2972 0.527904 21.2636 0.527904 24.7331H2.16546C2.16546 21.6186 3.16576 19.0798 4.84634 17.3253C6.52399 15.5737 8.93843 14.5414 11.8921 14.5414V12.9039ZM0.527904 24.7331V39.9282H2.16546V24.7331H0.527904ZM0.527904 39.9282C0.527904 43.3889 1.64822 46.3507 3.66409 48.4528C5.68284 50.5579 8.5409 51.7388 11.8921 51.7388V50.1012C8.9384 50.1012 6.52374 49.0689 4.846 47.3194C3.16539 45.5669 2.16546 43.0328 2.16546 39.9282H0.527904ZM11.8921 51.7388H28.0172V50.1012H11.8921V51.7388ZM28.0172 51.7388C31.3686 51.7388 34.2224 50.5578 36.2366 48.4521C38.2478 46.3496 39.3628 43.3879 39.3628 39.9282H37.7252C37.7252 43.0338 36.7293 45.568 35.0533 47.3201C33.3803 49.069 30.9707 50.1012 28.0172 50.1012V51.7388ZM39.3628 39.9282V24.7331H37.7252V39.9282H39.3628ZM39.3628 24.7331C39.3628 21.2646 38.2481 18.2983 36.237 16.1933C34.2226 14.0849 31.3686 12.9039 28.0172 12.9039V14.5414C30.9707 14.5414 33.3801 15.5736 35.0529 17.3245C36.729 19.0787 37.7252 21.6176 37.7252 24.7331H39.3628Z" fill="url(#paint1_linear_408_657)" mask="url(#path-3-outside-1_408_657)"/>
</g>
<g filter="url(#filter2_bd_408_657)">
<mask id="path-5-inside-2_408_657" fill="white">
<path d="M17.7376 38.3639C17.321 38.3639 16.9044 38.2058 16.5863 37.8878L12.1729 33.4743C11.5368 32.8382 11.5368 31.8078 12.1729 31.1736C12.8089 30.5376 13.8374 30.5357 14.4735 31.1718L17.7376 34.4358L25.4151 26.7583C26.0512 26.1222 27.0797 26.1222 27.7158 26.7583C28.3518 27.3944 28.3518 28.4247 27.7158 29.0608L18.8888 37.8878C18.5708 38.2058 18.1542 38.3639 17.7376 38.3639Z"/>
</mask>
<path d="M17.7376 38.3639C17.321 38.3639 16.9044 38.2058 16.5863 37.8878L12.1729 33.4743C11.5368 32.8382 11.5368 31.8078 12.1729 31.1736C12.8089 30.5376 13.8374 30.5357 14.4735 31.1718L17.7376 34.4358L25.4151 26.7583C26.0512 26.1222 27.0797 26.1222 27.7158 26.7583C28.3518 27.3944 28.3518 28.4247 27.7158 29.0608L18.8888 37.8878C18.5708 38.2058 18.1542 38.3639 17.7376 38.3639Z" fill="url(#paint2_linear_408_657)"/>
<path d="M12.1729 31.1736L12.2885 31.2896L12.2886 31.2894L12.1729 31.1736ZM17.7376 34.4358L17.6218 34.5516L17.7376 34.6674L17.8534 34.5516L17.7376 34.4358ZM27.7158 29.0608L27.6 28.945L27.7158 29.0608ZM18.8888 37.8878L19.0046 38.0035L18.8888 37.8878ZM17.7376 38.2001C17.3624 38.2001 16.9881 38.0579 16.7021 37.772L16.4705 38.0035C16.8207 38.3537 17.2795 38.5276 17.7376 38.5276V38.2001ZM16.7021 37.772L12.2886 33.3585L12.0571 33.5901L16.4705 38.0035L16.7021 37.772ZM12.2886 33.3585C11.7164 32.7863 11.7167 31.8597 12.2885 31.2896L12.0572 31.0577C11.3569 31.756 11.3571 32.8901 12.0571 33.5901L12.2886 33.3585ZM12.2886 31.2894C12.861 30.7171 13.7858 30.7157 14.3577 31.2876L14.5893 31.056C13.889 30.3557 12.7568 30.3581 12.0571 31.0578L12.2886 31.2894ZM14.3577 31.2876L17.6218 34.5516L17.8534 34.32L14.5893 31.056L14.3577 31.2876ZM17.8534 34.5516L25.5309 26.8741L25.2993 26.6425L17.6218 34.32L17.8534 34.5516ZM25.5309 26.8741C26.103 26.302 27.0279 26.302 27.6 26.8741L27.8316 26.6425C27.1315 25.9425 25.9993 25.9425 25.2993 26.6425L25.5309 26.8741ZM27.6 26.8741C28.1721 27.4462 28.1721 28.3729 27.6 28.945L27.8316 29.1766C28.5316 28.4766 28.5316 27.3425 27.8316 26.6425L27.6 26.8741ZM27.6 28.945L18.773 37.772L19.0046 38.0035L27.8316 29.1766L27.6 28.945ZM18.773 37.772C18.4871 38.0579 18.1127 38.2001 17.7376 38.2001V38.5276C18.1956 38.5276 18.6545 38.3537 19.0046 38.0035L18.773 37.772Z" fill="url(#paint3_linear_408_657)" fill-opacity="0.5" mask="url(#path-5-inside-2_408_657)"/>
</g>
<defs>
<filter id="filter0_f_408_657" x="8.65677" y="0.900425" width="45.5405" height="47.1054" filterUnits="userSpaceOnUse" color-interpolation-filters="sRGB">
<feFlood flood-opacity="0" result="BackgroundImageFix"/>
<feBlend mode="normal" in="SourceGraphic" in2="BackgroundImageFix" result="shape"/>
<feGaussianBlur stdDeviation="5.73143" result="effect1_foregroundBlur_408_657"/>
</filter>
<filter id="filter1_b_408_657" x="-19.1228" y="-6.74827" width="78.1362" height="78.1372" filterUnits="userSpaceOnUse" color-interpolation-filters="sRGB">
<feFlood flood-opacity="0" result="BackgroundImageFix"/>
<feGaussianBlur in="BackgroundImageFix" stdDeviation="9.8253"/>
<feComposite in2="SourceAlpha" operator="in" result="effect1_backgroundBlur_408_657"/>
<feBlend mode="normal" in="SourceGraphic" in2="effect1_backgroundBlur_408_657" result="shape"/>
</filter>
<filter id="filter2_bd_408_657" x="-0.585831" y="13.9996" width="41.0603" height="36.6453" filterUnits="userSpaceOnUse" color-interpolation-filters="sRGB">
<feFlood flood-opacity="0" result="BackgroundImageFix"/>
<feGaussianBlur in="BackgroundImageFix" stdDeviation="6.14082"/>
<feComposite in2="SourceAlpha" operator="in" result="effect1_backgroundBlur_408_657"/>
<feColorMatrix in="SourceAlpha" type="matrix" values="0 0 0 0 0 0 0 0 0 0 0 0 0 0 0 0 0 0 127 0" result="hardAlpha"/>
<feOffset dx="4.09388" dy="4.09388"/>
<feGaussianBlur stdDeviation="4.09388"/>
<feColorMatrix type="matrix" values="0 0 0 0 0.454902 0 0 0 0 0.870588 0 0 0 0 0.376471 0 0 0 0.5 0"/>
<feBlend mode="normal" in2="effect1_backgroundBlur_408_657" result="effect2_dropShadow_408_657"/>
<feBlend mode="normal" in="SourceGraphic" in2="effect2_dropShadow_408_657" result="shape"/>
</filter>
<linearGradient id="paint0_linear_408_657" x1="49.6629" y1="12.6011" x2="21.1246" y2="30.0673" gradientUnits="userSpaceOnUse">
<stop stop-color="#9BF763"/>
<stop offset="1" stop-color="#26AB5B"/>
</linearGradient>
<linearGradient id="paint1_linear_408_657" x1="7.26789" y1="18.0562" x2="30.9958" y2="47.4438" gradientUnits="userSpaceOnUse">
<stop stop-color="white" stop-opacity="0.25"/>
<stop offset="1" stop-color="white" stop-opacity="0"/>
</linearGradient>
<linearGradient id="paint2_linear_408_657" x1="27.0232" y1="28.4631" x2="8.66393" y2="29.2804" gradientUnits="userSpaceOnUse">
<stop stop-color="white"/>
<stop offset="1" stop-color="white" stop-opacity="0.2"/>
</linearGradient>
<linearGradient id="paint3_linear_408_657" x1="13.4729" y1="30.3344" x2="27.4808" y2="30.44" gradientUnits="userSpaceOnUse">
<stop stop-color="white"/>
<stop offset="1" stop-color="white" stop-opacity="0"/>
</linearGradient>
</defs>
</svg>
