<svg width="66" height="59" viewBox="0 0 66 59" fill="none" xmlns="http://www.w3.org/2000/svg">
<path d="M33.8563 39.2551C33.6749 39.3599 33.4695 39.4232 33.2571 39.4334L26.4123 39.7639C24.4695 39.8569 22.7983 39.6673 21.3014 39.1867C18.0259 38.1365 15.2772 35.9478 13.5636 33.0205L7.91962 23.388C7.26802 22.2764 7.41409 20.8567 8.27911 19.8544L16.0288 10.9014C16.4862 10.365 17.1263 9.9916 17.8258 9.85065L29.425 7.48005C30.7224 7.21297 32.0326 7.78237 32.6819 8.89338L38.33 18.533C40.0426 21.4551 40.6087 24.9192 39.9255 28.2874C39.6118 29.8324 38.9582 31.3814 37.9293 33.0231L34.3033 38.8199C34.1914 39.0007 34.037 39.1489 33.8563 39.2551Z" fill="url(#paint0_linear_408_768)"/>
<g filter="url(#filter0_f_408_768)">
<path d="M30.8297 33.517C30.7066 33.5881 30.5694 33.6346 30.4295 33.6488L25.9223 34.1066C24.6431 34.236 23.5527 34.1819 22.5876 33.9427C20.4758 33.4202 18.7523 32.1794 17.736 30.4469L14.3885 24.7459C14.002 24.088 14.1508 23.2113 14.7562 22.564L20.1788 16.7812C20.4991 16.4349 20.9333 16.1819 21.3979 16.0694L29.1032 14.1826C29.9652 13.9703 30.8044 14.271 31.1894 14.9286L34.5393 20.6338C35.5551 22.3632 35.7979 24.468 35.2237 26.5603C34.9602 27.5202 34.4733 28.4951 33.7365 29.5409L31.1394 33.2333C31.0592 33.3484 30.9523 33.4451 30.8297 33.517Z" fill="#000088" fill-opacity="0.3"/>
</g>
<g filter="url(#filter1_b_408_768)">
<mask id="path-3-outside-1_408_768" maskUnits="userSpaceOnUse" x="17.3533" y="7.56665" width="47.6679" height="52.6861" fill="black">
<rect fill="white" x="17.3533" y="7.56665" width="47.6679" height="52.6861"/>
<path d="M37.5884 56.1194C37.313 56.077 37.0474 55.9714 36.8187 55.8046L29.4481 50.4276C27.3569 48.9006 25.7825 47.3058 24.6313 45.5528C22.1111 41.7187 21.0855 37.1367 21.7482 32.6492L23.9236 17.8785C24.1743 16.1737 25.5086 14.8142 27.2404 14.4912L42.7331 11.626C43.6541 11.4484 44.6287 11.5939 45.4712 12.0315L59.4697 19.2537C61.0371 20.0595 61.9208 21.749 61.6682 23.4513L59.4911 38.2329C58.8317 42.7142 56.5323 46.8026 53.0178 49.7466C51.4053 51.0968 49.4372 52.167 47.0027 53.0203L38.4144 56.0388C38.1476 56.134 37.8641 56.1595 37.5884 56.1194Z"/>
</mask>
<path d="M37.5884 56.1194C37.313 56.077 37.0474 55.9714 36.8187 55.8046L29.4481 50.4276C27.3569 48.9006 25.7825 47.3058 24.6313 45.5528C22.1111 41.7187 21.0855 37.1367 21.7482 32.6492L23.9236 17.8785C24.1743 16.1737 25.5086 14.8142 27.2404 14.4912L42.7331 11.626C43.6541 11.4484 44.6287 11.5939 45.4712 12.0315L59.4697 19.2537C61.0371 20.0595 61.9208 21.749 61.6682 23.4513L59.4911 38.2329C58.8317 42.7142 56.5323 46.8026 53.0178 49.7466C51.4053 51.0968 49.4372 52.167 47.0027 53.0203L38.4144 56.0388C38.1476 56.134 37.8641 56.1595 37.5884 56.1194Z" fill="white" fill-opacity="0.35"/>
<path d="M37.4364 57.1078C37.9823 57.1917 38.4928 56.8173 38.5768 56.2714C38.6607 55.7255 38.2863 55.2149 37.7404 55.131L37.4364 57.1078ZM36.8187 55.8046L37.4081 54.9967L37.408 54.9967L36.8187 55.8046ZM29.4481 50.4276L28.8584 51.2352L28.8588 51.2355L29.4481 50.4276ZM24.6313 45.5528L25.4671 45.0038L25.4669 45.0035L24.6313 45.5528ZM21.7482 32.6492L22.7374 32.7953L22.7375 32.7949L21.7482 32.6492ZM23.9236 17.8785L24.9129 18.0242L24.9129 18.024L23.9236 17.8785ZM27.2404 14.4912L27.0585 13.5079L27.0571 13.5082L27.2404 14.4912ZM42.7331 11.626L42.9149 12.6093L42.9223 12.6079L42.7331 11.626ZM45.4712 12.0315L45.0102 12.9189L45.0127 12.9202L45.4712 12.0315ZM59.4697 19.2537L59.0112 20.1424L59.0125 20.143L59.4697 19.2537ZM61.6682 23.4513L60.679 23.3045L60.6789 23.3056L61.6682 23.4513ZM59.4911 38.2329L58.5018 38.0872L58.5018 38.0873L59.4911 38.2329ZM53.0178 49.7466L53.6598 50.5133L53.6599 50.5132L53.0178 49.7466ZM47.0027 53.0203L46.672 52.0766L46.6712 52.0768L47.0027 53.0203ZM38.4144 56.0388L38.0828 55.0954L38.0784 55.0969L38.4144 56.0388ZM37.7326 55.1298C37.1861 55.0502 36.6785 55.4287 36.5989 55.9752C36.5192 56.5217 36.8977 57.0293 37.4442 57.1089L37.7326 55.1298ZM37.7404 55.131C37.6153 55.1118 37.5012 55.0647 37.4081 54.9967L36.2293 56.6124C36.5936 56.8782 37.0108 57.0423 37.4364 57.1078L37.7404 55.131ZM37.408 54.9967L30.0375 49.6197L28.8588 51.2355L36.2293 56.6124L37.408 54.9967ZM30.0379 49.62C28.022 48.148 26.5393 46.6364 25.4671 45.0038L23.7954 46.1017C25.0257 47.9751 26.6918 49.6532 28.8584 51.2352L30.0379 49.62ZM25.4669 45.0035C23.0796 41.3715 22.1111 37.0365 22.7374 32.7953L20.7589 32.5032C20.0599 37.2369 21.1426 42.0658 23.7956 46.1021L25.4669 45.0035ZM22.7375 32.7949L24.9129 18.0242L22.9342 17.7328L20.7588 32.5035L22.7375 32.7949ZM24.9129 18.024C25.0993 16.7564 26.0974 15.7216 27.4237 15.4743L27.0571 13.5082C24.9198 13.9067 23.2492 15.591 22.9342 17.733L24.9129 18.024ZM27.4223 15.4745L42.9149 12.6093L42.5512 10.6427L27.0585 13.5079L27.4223 15.4745ZM42.9223 12.6079C43.6181 12.4738 44.3639 12.5832 45.0102 12.9189L45.9321 11.144C44.8935 10.6045 43.6902 10.4231 42.5438 10.6441L42.9223 12.6079ZM45.0127 12.9202L59.0112 20.1424L59.9283 18.365L45.9297 11.1428L45.0127 12.9202ZM59.0125 20.143C60.2107 20.7591 60.8669 22.0388 60.679 23.3045L62.6574 23.5981C62.9748 21.4592 61.8635 19.3599 59.927 18.3643L59.0125 20.143ZM60.6789 23.3056L58.5018 38.0872L60.4805 38.3786L62.6575 23.597L60.6789 23.3056ZM58.5018 38.0873C57.8786 42.3226 55.7049 46.1913 52.3757 48.98L53.6599 50.5132C57.3597 47.414 59.7849 43.1057 60.4805 38.3785L58.5018 38.0873ZM52.3758 48.9799C50.8741 50.2374 49.0181 51.2542 46.672 52.0766L47.3335 53.964C49.8562 53.0797 51.9365 51.9563 53.6598 50.5133L52.3758 48.9799ZM46.6712 52.0768L38.0828 55.0954L38.7459 56.9822L47.3343 53.9637L46.6712 52.0768ZM38.0784 55.0969C37.97 55.1356 37.8517 55.1472 37.7326 55.1298L37.4442 57.1089C37.8766 57.1719 38.3252 57.1323 38.7503 56.9807L38.0784 55.0969Z" fill="url(#paint1_linear_408_768)" mask="url(#path-3-outside-1_408_768)"/>
</g>
<g filter="url(#filter2_bd_408_768)">
<path d="M38.5082 38.7817C38.0781 38.7178 37.672 38.4969 37.3897 38.1275L33.7575 33.3724C33.1973 32.6344 33.3495 31.5998 34.0996 31.0589C34.85 30.5158 35.9144 30.6728 36.4773 31.4089L39.091 34.8288L47.7152 28.597C48.4678 28.0542 49.5323 28.2112 50.0929 28.947C50.6554 29.6853 50.5028 30.7222 49.7531 31.2609L39.7673 38.4776C39.3908 38.75 38.9384 38.8456 38.5082 38.7817Z" fill="url(#paint2_linear_408_768)"/>
<path d="M34.1582 31.1399L34.1581 31.14C33.4539 31.6478 33.3107 32.6183 33.837 33.3118C33.8371 33.3118 33.8371 33.3119 33.8372 33.3119L37.4691 38.0668C37.4691 38.0668 37.4691 38.0668 37.4691 38.0668C37.7347 38.4142 38.1168 38.6225 38.5229 38.6828C38.9287 38.7431 39.3545 38.6529 39.7087 38.3966L39.7088 38.3965L49.6945 31.1798L49.6947 31.1797C50.3983 30.6741 50.542 29.7015 50.0133 29.0076C49.4857 28.3152 48.4826 28.1669 47.7738 28.678L34.1582 31.1399ZM34.1582 31.1399C34.8647 30.6286 35.8679 30.7765 36.3978 31.4697L39.0115 34.8896L39.0706 34.9669L39.1495 34.9099L47.7737 28.6781L34.1582 31.1399Z" stroke="url(#paint3_linear_408_768)" stroke-opacity="0.5" stroke-width="0.2"/>
</g>
<defs>
<filter id="filter0_f_408_768" x="0.175293" y="0.117188" width="49.353" height="48.0586" filterUnits="userSpaceOnUse" color-interpolation-filters="sRGB">
<feFlood flood-opacity="0" result="BackgroundImageFix"/>
<feBlend mode="normal" in="SourceGraphic" in2="BackgroundImageFix" result="shape"/>
<feGaussianBlur stdDeviation="7" result="effect1_foregroundBlur_408_768"/>
</filter>
<filter id="filter1_b_408_768" x="-3.44824" y="-13.4492" width="90.1592" height="94.5859" filterUnits="userSpaceOnUse" color-interpolation-filters="sRGB">
<feFlood flood-opacity="0" result="BackgroundImageFix"/>
<feGaussianBlur in="BackgroundImageFix" stdDeviation="12"/>
<feComposite in2="SourceAlpha" operator="in" result="effect1_backgroundBlur_408_768"/>
<feBlend mode="normal" in="SourceGraphic" in2="effect1_backgroundBlur_408_768" result="shape"/>
</filter>
<filter id="filter2_bd_408_768" x="18.4199" y="13.2734" width="47.0122" height="40.5273" filterUnits="userSpaceOnUse" color-interpolation-filters="sRGB">
<feFlood flood-opacity="0" result="BackgroundImageFix"/>
<feGaussianBlur in="BackgroundImageFix" stdDeviation="7.5"/>
<feComposite in2="SourceAlpha" operator="in" result="effect1_backgroundBlur_408_768"/>
<feColorMatrix in="SourceAlpha" type="matrix" values="0 0 0 0 0 0 0 0 0 0 0 0 0 0 0 0 0 0 127 0" result="hardAlpha"/>
<feOffset dx="5" dy="5"/>
<feGaussianBlur stdDeviation="5"/>
<feColorMatrix type="matrix" values="0 0 0 0 0 0 0 0 0 0 0 0 0 0 0.533333 0 0 0 0.4 0"/>
<feBlend mode="normal" in2="effect1_backgroundBlur_408_768" result="effect2_dropShadow_408_768"/>
<feBlend mode="normal" in="SourceGraphic" in2="effect2_dropShadow_408_768" result="shape"/>
</filter>
<linearGradient id="paint0_linear_408_768" x1="29.3605" y1="2.99692" x2="20.5671" y2="35.7999" gradientUnits="userSpaceOnUse">
<stop stop-color="white"/>
<stop offset="1" stop-color="#FDFDFD" stop-opacity="0.56"/>
</linearGradient>
<linearGradient id="paint1_linear_408_768" x1="30.5549" y1="14.814" x2="54.8464" y2="49.7844" gradientUnits="userSpaceOnUse">
<stop stop-color="white" stop-opacity="0.25"/>
<stop offset="1" stop-color="white" stop-opacity="0"/>
</linearGradient>
<linearGradient id="paint2_linear_408_768" x1="49.182" y1="30.509" x2="30.9277" y2="28.5356" gradientUnits="userSpaceOnUse">
<stop stop-color="white"/>
<stop offset="1" stop-color="white" stop-opacity="0.2"/>
</linearGradient>
<linearGradient id="paint3_linear_408_768" x1="35.5196" y1="30.2817" x2="49.3361" y2="32.5143" gradientUnits="userSpaceOnUse">
<stop stop-color="white"/>
<stop offset="1" stop-color="white" stop-opacity="0"/>
</linearGradient>
</defs>
</svg>
